<?xml version="1.0" encoding="UTF-8"?>
<svg id="Layer_2" data-name="Layer 2" xmlns="http://www.w3.org/2000/svg" viewBox="0 0 25 25">
  <defs>
    <style>
      .cls-1 {
        fill: #ff5722;
      }

      .cls-2 {
        fill: #1c0802;
      }
    </style>
  </defs>
  <g id="design">
    <g>
      <path class="cls-1" d="M0,2.78C0,1.24,1.24,0,2.78,0H22.22c1.53,0,2.78,1.24,2.78,2.78V22.22c0,1.53-1.24,2.78-2.78,2.78H2.78c-1.53,0-2.78-1.24-2.78-2.78V2.78Z"/>
      <path class="cls-2" d="M2.08,2.08V22.92H22.92V2.08H2.08Zm10.2,15.28l-.53-2.02h-2.72l-.53,2.02h-2.11l3.09-9.87h1.82l3.11,9.87h-2.13Zm4.97,0h-1.93v-7.34h1.93v7.34Zm-.21-8.5c-.19,.19-.44,.29-.76,.29s-.57-.1-.76-.29-.28-.44-.28-.73,.1-.54,.28-.73,.44-.28,.76-.28,.57,.1,.76,.28,.28,.43,.28,.73c0,.29-.09,.54-.28,.73Z"/>
      <path class="cls-2" d="M9.47,13.68h1.84l-.92-3.52-.92,3.52Z"/>
    </g>
  </g>
</svg>