<?xml version="1.0" encoding="UTF-8"?>
<svg id="Layer_2" data-name="Layer 2" xmlns="http://www.w3.org/2000/svg" viewBox="0 0 25 25">
  <defs>
    <style>
      .cls-1 {
        fill: #03a9f4;
      }

      .cls-2 {
        fill: #020f16;
      }
    </style>
  </defs>
  <g id="design">
    <g>
      <path class="cls-1" d="M0,2.78C0,1.24,1.24,0,2.78,0H22.22c1.53,0,2.78,1.24,2.78,2.78V22.22c0,1.53-1.24,2.78-2.78,2.78H2.78c-1.53,0-2.78-1.24-2.78-2.78V2.78Z"/>
      <path class="cls-2" d="M9.73,9.15h-1.39v3.08h1.37c.38,0,.67-.12,.88-.37s.31-.61,.31-1.09-.11-.88-.32-1.18-.5-.44-.85-.44Z"/>
      <path class="cls-2" d="M2.08,2.08V22.92H22.92V2.08H2.08ZM12.06,13.05c-.57,.56-1.37,.84-2.39,.84h-1.33v3.47h-1.99V7.49h3.36c.98,0,1.76,.3,2.34,.91s.87,1.39,.87,2.36-.29,1.73-.86,2.29Zm6.47,3.85c-.49,.4-1.14,.6-1.94,.6-.54,0-1.01-.1-1.42-.32s-.73-.5-.97-.88-.35-.78-.35-1.21h1.82c0,.33,.09,.59,.23,.75s.39,.25,.72,.25c.52,0,.77-.23,.77-.7,0-.16-.08-.31-.23-.45s-.5-.32-1.04-.56c-.79-.32-1.33-.65-1.63-1s-.44-.77-.44-1.28c0-.64,.23-1.17,.7-1.59s1.08-.63,1.84-.63c.8,0,1.45,.21,1.93,.62,.48,.42,.73,.97,.73,1.68h-1.92c0-.6-.25-.9-.75-.9-.2,0-.37,.06-.5,.19s-.2,.3-.2,.53c0,.16,.07,.31,.22,.43s.49,.3,1.02,.53c.78,.29,1.33,.61,1.66,.97s.48,.82,.48,1.38c0,.66-.25,1.18-.74,1.58Z"/>
    </g>
  </g>
</svg>