<?xml version="1.0" encoding="UTF-8"?>
<svg id="Layer_2" data-name="Layer 2" xmlns="http://www.w3.org/2000/svg" viewBox="0 0 25 25">
  <defs>
    <style>
      .cls-1 {
        fill: #ffd600;
      }

      .cls-2 {
        fill: #000001;
      }
    </style>
  </defs>
  <g id="design">
    <g>
      <path class="cls-1" d="M0,25V0H25V25H0Z"/>
      <path class="cls-2" d="M15.42,18.71c.48,.78,1,1.53,2.11,1.53,.93,0,1.42-.46,1.42-1.1,0-.76-.5-1.04-1.53-1.48l-.56-.24c-1.62-.69-2.69-1.55-2.69-3.36,0-1.67,1.28-2.95,3.28-2.95,1.43,0,2.45,.49,3.19,1.79l-1.75,1.12c-.38-.69-.8-.96-1.44-.96s-1.07,.41-1.07,.96c0,.67,.42,.94,1.38,1.35l.56,.24c1.91,.81,2.98,1.64,2.98,3.5,0,2.01-1.59,3.11-3.72,3.11s-3.27-1.05-3.92-2.34l1.76-1.17Zm-8.05,.06c.35,.63,.89,1.11,1.65,1.11s1.16-.29,1.16-1.42v-7.35h2.31v7.71c0,2.34-1.36,3.4-3.34,3.4-1.79,0-3.08-1.21-3.61-2.34l1.82-1.11Z"/>
    </g>
  </g>
</svg>