<?xml version="1.0" encoding="UTF-8"?>
<svg id="Layer_2" data-name="Layer 2" xmlns="http://www.w3.org/2000/svg" viewBox="0 0 25 25">
  <g id="design">
    <path d="M15.26,0c-.06,0-.12,.03-.18,.05-.49,.24-1.04,.96-1.15,1.1,0,0-.01,.02-.02,.03-.55,.82-.84,1.78-.85,2.78,0,.75,.14,1.49,.44,2.21,.69,1.66,2.13,3.04,3.84,3.68,.06,.02,.11,.04,.21,.08,0,0,.09,.03,.11,.03l.06,.02c.09,.03,.18,.06,.27,.08,.45,.09,.89,.14,1.3,.16,.07,0,.14,0,.21,0,3.11,0,4.32-2.2,4.72-2.93,.04-.07,.07-.13,.1-.16t0,0c.18-.26,.11-.61-.15-.79-.26-.18-.61-.11-.79,.15h0c-.83,1.22-2.25,1.59-4.22,1.11-.15-.04-.31-.09-.45-.14-.19-.07-.37-.14-.55-.23-.34-.17-.67-.38-.96-.6-1.73-1.34-2.41-4.14-1.4-5.75,.14-.22,.11-.49-.06-.68-.13-.14-.32-.21-.5-.18Zm-5.03,1.13c-.13,0-.26,.04-.37,.13-.86,.7-1.74,1.84-1.78,1.89,0,0,0,.02-.02,.02-1.55,2.26-1.67,5.48-.3,8.2,.22,.43,.46,.84,.72,1.22l.08,.11c.22,.32,.47,.69,.78,.97,.11,.12,.23,.24,.34,.36l.06,.06,.05,.05c.12,.11,.24,.23,.36,.34h0s.02,.02,.03,.03c.14,.12,.28,.24,.47,.39l.05,.04c.15,.12,.3,.23,.45,.34l.05,.03c.05,.04,.11,.07,.16,.11l.05,.04,.06,.04c.11,.08,.22,.14,.38,.24,.1,.06,.21,.12,.28,.16,.03,.02,.06,.04,.14,.08l.17,.09s.05,.02,.06,.03c.11,.06,.23,.11,.35,.17l.18,.08c.12,.05,.24,.1,.38,.16l.07,.02s.06,.02,.06,.03c.11,.04,.22,.08,.32,.11l.25,.08c.12,.04,.27,.09,.43,.12,.77,.13,1.53,.2,2.24,.2,.08,0,.17,0,.25,0,6.27-.14,7.9-5.47,7.92-5.52,.08-.27-.05-.55-.3-.67s-.55-.04-.71,.2c-1.59,2.32-4.59,3.3-7.65,2.49-.14-.04-.28-.08-.45-.13-.03,0-.05-.02-.1-.04-.1-.03-.2-.06-.31-.11l-.16-.06c-.09-.04-.18-.07-.29-.12l-.07-.03c-.14-.06-.27-.12-.38-.18l-.32-.17c-.07-.04-.14-.08-.24-.14l-.06-.03-.06-.03c-.08-.05-.16-.1-.24-.15l-.05-.03s-.05-.03-.05-.04c-.07-.04-.13-.08-.19-.12-.14-.1-.27-.2-.43-.32l-.06-.05c-1.46-1.17-2.55-2.73-3.06-4.41-.47-1.54-.12-3.55,.94-5.38,.14-.24,.09-.54-.12-.72-.1-.09-.23-.14-.36-.14ZM3.98,2.84c-.14,0-.27,.05-.38,.15-1.09,.97-1.9,2.24-1.99,2.38-2.32,3.38-1.87,8.63-.28,11.84,.03,.07,.06,.13,.1,.2l.02,.04c.03,.06,.06,.13,.07,.14,.02,.04,.04,.09,.06,.1,.03,.06,.05,.1,.1,.19l.18,.31s.05,.09,.06,.1c.04,.06,.07,.12,.11,.18l.09,.14s.05,.08,.07,.1c.09,.14,.18,.28,.28,.41,0,0,0,.01,.01,.02l.04,.05c.08,.12,.16,.23,.24,.32l.32,.41s.04,.05,.04,.05l.05,.05c.1,.12,.2,.24,.31,.36,.02,.02,.03,.03,.05,.05,.1,.11,.2,.22,.31,.33l.1,.1c.08,.09,.17,.18,.26,.26,0,0,.04,.04,.04,.04l.09,.08c.11,.1,.22,.2,.3,.28,0,0,.08,.08,.09,.08,.1,.09,.21,.18,.32,.27l.54,.43c.09,.07,.18,.13,.29,.21,.04,.03,.07,.05,.11,.08,.02,.01,.03,.03,.04,.03l.41,.27c.15,.1,.3,.19,.48,.3l.1,.06c.11,.07,.23,.13,.34,.19,.06,.04,.13,.07,.18,.1,.08,.04,.16,.09,.29,.15,.01,0,.1,.05,.11,.06,.13,.06,.26,.12,.42,.2,0,0,.05,.03,.05,.03,.15,.06,.3,.13,.49,.2,.03,.01,.06,.02,.07,.03,.14,.05,.28,.11,.4,.15,.01,0,.07,.03,.08,.03,.16,.05,.31,.1,.51,.17,.03,.01,.07,.02,.07,.02l.11,.04c.14,.04,.28,.09,.42,.12,1.06,.19,2.09,.29,3.06,.29h0c8.14,0,10.73-6.55,10.76-6.62,.1-.26,0-.56-.26-.7-.24-.14-.55-.07-.73,.15-2.09,2.75-6.03,3.77-10.54,2.73-.11-.03-.22-.06-.33-.09l-.21-.06c-.14-.04-.29-.09-.43-.14,0,0-.07-.02-.07-.02-.12-.04-.25-.09-.36-.13l-.12-.05c-.14-.06-.28-.11-.41-.17l-.08-.03c-.12-.06-.24-.11-.35-.17,0,0-.1-.05-.11-.05-.08-.04-.16-.08-.26-.14l-.46-.25s-.1-.06-.14-.08c-.14-.09-.28-.17-.43-.26-.03-.02-.06-.04-.12-.08-.1-.06-.19-.13-.33-.22l-.06-.04c-.1-.07-.19-.14-.27-.2-.05-.04-.1-.08-.18-.14-.07-.06-.14-.11-.21-.16l-.12-.1c-.1-.08-.2-.17-.3-.26-.01-.01-.02-.02-.04-.03-.11-.1-.23-.21-.37-.34l-.4-.4c-.1-.1-.2-.2-.31-.32-.1-.11-.2-.23-.33-.38l-.24-.29s-.06-.08-.1-.13c-.08-.11-.16-.22-.25-.34-2.21-3.05-2.79-9.4-1.07-11.73,.17-.23,.14-.56-.08-.76-.11-.1-.24-.15-.38-.15Z"/>
  </g>
</svg>